<svg width="17" height="17" viewBox="0 0 17 17" fill="none" xmlns="http://www.w3.org/2000/svg">
<path d="M8.5 0C4.97941 0 2.125 2.85441 2.125 6.375C2.125 7.7613 2.57948 9.03337 3.33492 10.0752C3.34847 10.1001 3.35059 10.128 3.366 10.1519L7.616 16.5269C7.81309 16.8226 8.14512 17 8.5 17C8.85488 17 9.18691 16.8226 9.384 16.5269L13.634 10.1519C13.6497 10.128 13.6515 10.1001 13.6651 10.0752C14.4205 9.03337 14.875 7.7613 14.875 6.375C14.875 2.85441 12.0206 0 8.5 0ZM8.5 8.5C7.32647 8.5 6.375 7.54853 6.375 6.375C6.375 5.20147 7.32647 4.25 8.5 4.25C9.67353 4.25 10.625 5.20147 10.625 6.375C10.625 7.54853 9.67353 8.5 8.5 8.5Z" fill="white"/>
</svg>
