<svg width="22" height="22" viewBox="0 0 22 22" fill="none" xmlns="http://www.w3.org/2000/svg">
<path d="M21.5231 16.7829C20.8364 16.2069 16.8088 13.6565 16.1394 13.7736C15.8251 13.8294 15.5846 14.0973 14.9411 14.8649C14.6436 15.2428 14.3167 15.5966 13.9637 15.9233C13.3169 15.767 12.6908 15.535 12.0984 15.2319C9.77529 14.1008 7.8985 12.2235 6.76814 9.9C6.46504 9.30762 6.23296 8.68153 6.07671 8.03471C6.40336 7.68169 6.75723 7.35488 7.13507 7.05729C7.90193 6.41379 8.17064 6.17493 8.22643 5.85907C8.3435 5.18807 5.79071 1.16207 5.21714 0.475357C4.97671 0.190929 4.75829 0 4.47857 0C3.66771 0 0 4.53514 0 5.12286C0 5.17079 0.0785713 9.89214 6.04136 15.9586C12.1079 21.9214 16.8292 22 16.8771 22C17.4649 22 22 18.3323 22 17.5214C22 17.2417 21.8091 17.0233 21.5231 16.7829Z" fill="#636363"/>
<path d="M16.4999 10.2143H18.0714C18.0695 8.5478 17.4066 6.95009 16.2282 5.7717C15.0499 4.5933 13.4521 3.93046 11.7856 3.92859V5.50002C13.0356 5.50127 14.2339 5.99835 15.1178 6.88218C16.0016 7.76601 16.4987 8.96438 16.4999 10.2143Z" fill="#636363"/>
<path d="M20.4285 10.2143H21.9999C21.9968 7.50625 20.9197 4.91001 19.0048 2.99514C17.0899 1.08027 14.4937 0.00311927 11.7856 0V1.57143C14.077 1.57413 16.2738 2.48558 17.8941 4.10585C19.5143 5.72611 20.4258 7.92289 20.4285 10.2143Z" fill="#636363"/>
</svg>
