<svg width="70" height="70" viewBox="0 0 70 70" fill="none" xmlns="http://www.w3.org/2000/svg">
<path fill-rule="evenodd" clip-rule="evenodd" d="M15.4376 15.4376C16.5766 14.2986 18.4234 14.2986 19.5624 15.4376L35 30.8753L50.4376 15.4376C51.5766 14.2986 53.4234 14.2986 54.5624 15.4376C55.7013 16.5767 55.7013 18.4234 54.5624 19.5624L39.1247 35L54.5624 50.4377C55.7013 51.5766 55.7013 53.4235 54.5624 54.5624C53.4234 55.7014 51.5766 55.7014 50.4376 54.5624L35 39.1248L19.5624 54.5624C18.4234 55.7014 16.5766 55.7014 15.4376 54.5624C14.2986 53.4235 14.2986 51.5766 15.4376 50.4377L30.8753 35L15.4376 19.5624C14.2986 18.4234 14.2986 16.5767 15.4376 15.4376Z" fill="#190800"/>
</svg>
