<svg width="24" height="20" viewBox="0 0 24 20" fill="none" xmlns="http://www.w3.org/2000/svg">
<path d="M19.0196 0H4.11765C3.0259 0.00103828 1.97916 0.435194 1.20718 1.20718C0.435194 1.97916 0.00103828 3.0259 0 4.11765L0 15.8824C0.00103828 16.9741 0.435194 18.0208 1.20718 18.7928C1.97916 19.5648 3.0259 19.999 4.11765 20H19.0196C20.1114 19.999 21.1581 19.5648 21.9301 18.7928C22.7021 18.0208 23.1362 16.9741 23.1373 15.8824V4.11765C23.1362 3.0259 22.7021 1.97916 21.9301 1.20718C21.1581 0.435194 20.1114 0.00103828 19.0196 0ZM20.2863 6.78824L13.251 10.7451C12.7362 11.0304 12.1572 11.1801 11.5686 11.1801C10.98 11.1801 10.4011 11.0304 9.88627 10.7451L2.85098 6.78824C2.7229 6.73464 2.60766 6.65445 2.51289 6.55297C2.41812 6.45149 2.34599 6.33104 2.30128 6.19959C2.25656 6.06814 2.24027 5.9287 2.25349 5.79048C2.26671 5.65226 2.30914 5.51843 2.37797 5.39785C2.44679 5.27726 2.54045 5.17267 2.65273 5.09099C2.76502 5.00932 2.89337 4.95243 3.02929 4.92408C3.16521 4.89574 3.30561 4.89659 3.44118 4.92658C3.57675 4.95657 3.7044 5.01501 3.81569 5.09804L10.8471 9.01961C11.0676 9.14291 11.316 9.20765 11.5686 9.20765C11.8213 9.20765 12.0697 9.14291 12.2902 9.01961L19.3216 5.09804C19.4338 5.02971 19.5586 4.98464 19.6886 4.9655C19.8186 4.94637 19.9512 4.95357 20.0783 4.98666C20.2055 5.01976 20.3247 5.07809 20.4289 5.15817C20.5331 5.23825 20.6201 5.33846 20.6848 5.45284C20.7495 5.56722 20.7905 5.69344 20.8054 5.82399C20.8204 5.95454 20.8089 6.08676 20.7717 6.2128C20.7346 6.33883 20.6724 6.45611 20.589 6.55766C20.5056 6.65921 20.4027 6.74295 20.2863 6.80392V6.78824Z" fill="#636363"/>
</svg>
