<svg width="25" height="22" viewBox="0 0 25 22" fill="none" xmlns="http://www.w3.org/2000/svg">
<path d="M9.94863 7.79296e-08C10.9413 -0.000174816 11.9118 0.294033 12.7373 0.845419C13.5627 1.3968 14.2062 2.1806 14.5862 3.09768C14.9662 4.01476 15.0657 5.02394 14.8722 5.99758C14.6786 6.97123 14.2007 7.8656 13.4988 8.56761C12.7969 9.26961 11.9026 9.74771 10.929 9.94144C9.95539 10.1352 8.94619 10.0358 8.02904 9.65598C7.1119 9.27613 6.32799 8.63284 5.77646 7.80745C5.22493 6.98207 4.93055 6.01167 4.93055 5.01897C4.93195 3.68844 5.46106 2.41279 6.40181 1.47188C7.34255 0.530974 8.6181 0.0016385 9.94863 7.79296e-08ZM18.3145 22H1.58368C1.16366 22 0.760848 21.8332 0.46385 21.5362C0.166853 21.2392 0 20.8363 0 20.4163C0.00257457 18.068 0.936597 15.8165 2.59714 14.156C4.25768 12.4954 6.50912 11.5614 8.85748 11.5588H11.0416C13.3892 11.5626 15.6396 12.4971 17.2994 14.1575C18.9591 15.8179 19.8927 18.0686 19.8955 20.4163C19.8955 20.8359 19.729 21.2383 19.4326 21.5352C19.1362 21.8321 18.734 21.9993 18.3145 22ZM23.3547 11.0106H21.6322V12.7296C21.6371 12.9406 21.5999 13.1506 21.5226 13.347C21.4452 13.5435 21.3294 13.7225 21.1819 13.8735C21.0344 14.0246 20.8582 14.1446 20.6636 14.2265C20.469 14.3085 20.26 14.3507 20.0489 14.3507C19.8378 14.3507 19.6288 14.3085 19.4342 14.2265C19.2397 14.1446 19.0634 14.0246 18.9159 13.8735C18.7684 13.7225 18.6526 13.5435 18.5753 13.347C18.498 13.1506 18.4607 12.9406 18.4657 12.7296V11.0106H16.7458C16.3258 11.0106 15.923 10.8438 15.626 10.5468C15.329 10.2498 15.1621 9.84695 15.1621 9.42693C15.1621 9.00691 15.329 8.6041 15.626 8.3071C15.923 8.0101 16.3258 7.84325 16.7458 7.84325H18.4657V6.12339C18.4607 5.91233 18.498 5.7024 18.5753 5.50595C18.6526 5.3095 18.7684 5.13049 18.9159 4.97945C19.0634 4.82841 19.2397 4.70839 19.4342 4.62645C19.6288 4.54451 19.8378 4.50229 20.0489 4.50229C20.26 4.50229 20.469 4.54451 20.6636 4.62645C20.8582 4.70839 21.0344 4.82841 21.1819 4.97945C21.3294 5.13049 21.4452 5.3095 21.5226 5.50595C21.5999 5.7024 21.6371 5.91233 21.6322 6.12339V7.84325H23.352C23.772 7.84325 24.1748 8.0101 24.4718 8.3071C24.7688 8.6041 24.9357 9.00691 24.9357 9.42693C24.9357 9.84695 24.7688 10.2498 24.4718 10.5468C24.1748 10.8438 23.772 11.0106 23.352 11.0106H23.3547Z" fill="#636363"/>
</svg>
