<svg width="18" height="18" viewBox="0 0 18 18" fill="none" xmlns="http://www.w3.org/2000/svg">
<g clip-path="url(#clip0_295_1371)">
<path d="M17.4834 5.14505C17.4424 4.2152 17.292 3.57595 17.0766 3.02202C16.8544 2.43404 16.5125 1.90763 16.0647 1.47001C15.627 1.02559 15.0972 0.680255 14.516 0.461516C13.9589 0.246115 13.3229 0.0957485 12.3931 0.0547516C11.4563 0.0102826 11.1589 0 8.78296 0C6.40701 0 6.10961 0.0102826 5.1763 0.0512795C4.24646 0.0922765 3.6072 0.242777 3.0534 0.458044C2.46529 0.680255 1.93888 1.02212 1.50126 1.47001C1.05684 1.90763 0.711639 2.43751 0.492766 3.01868C0.277365 3.57595 0.126999 4.21173 0.0860016 5.14157C0.0415326 6.07836 0.03125 6.37576 0.03125 8.75171C0.03125 11.1277 0.0415326 11.4251 0.0825295 12.3584C0.123526 13.2882 0.274027 13.9275 0.489427 14.4814C0.711639 15.0694 1.05684 15.5958 1.50126 16.0334C1.93888 16.4778 2.46876 16.8232 3.04993 17.0419C3.6072 17.2573 4.24298 17.4077 5.17296 17.4487C6.10614 17.4898 6.40367 17.4999 8.77962 17.4999C11.1556 17.4999 11.453 17.4898 12.3863 17.4487C13.3161 17.4077 13.9554 17.2573 14.5092 17.0419C15.6853 16.5872 16.6151 15.6574 17.0698 14.4814C17.2851 13.9241 17.4356 13.2882 17.4766 12.3584C17.5176 11.4251 17.5279 11.1277 17.5279 8.75171C17.5279 6.37576 17.5244 6.07836 17.4834 5.14505ZM15.9075 12.29C15.8698 13.1447 15.7263 13.6062 15.6066 13.9138C15.3126 14.6762 14.7075 15.2813 13.9451 15.5754C13.6374 15.695 13.1726 15.8386 12.3212 15.8761C11.3982 15.9172 11.1214 15.9274 8.78643 15.9274C6.45148 15.9274 6.17117 15.9172 5.25148 15.8761C4.39682 15.8386 3.93531 15.695 3.62763 15.5754C3.24824 15.4351 2.9029 15.2129 2.6226 14.9223C2.33202 14.6386 2.10981 14.2967 1.96959 13.9173C1.84994 13.6096 1.70638 13.1447 1.66886 12.2935C1.62773 11.3704 1.61758 11.0935 1.61758 8.75852C1.61758 6.42356 1.62773 6.14326 1.66886 5.2237C1.70638 4.36904 1.84994 3.90753 1.96959 3.59985C2.10981 3.22033 2.33202 2.87513 2.62608 2.59469C2.90972 2.30411 3.25158 2.0819 3.6311 1.94181C3.93878 1.82216 4.40377 1.6786 5.25495 1.64095C6.17798 1.59995 6.45495 1.58967 8.78977 1.58967C11.1282 1.58967 11.405 1.59995 12.3247 1.64095C13.1794 1.6786 13.6409 1.82216 13.9486 1.94181C14.328 2.0819 14.6733 2.30411 14.9536 2.59469C15.2442 2.87846 15.4664 3.22033 15.6066 3.59985C15.7263 3.90753 15.8698 4.37238 15.9075 5.2237C15.9485 6.14673 15.9588 6.42356 15.9588 8.75852C15.9588 11.0935 15.9485 11.367 15.9075 12.29Z" fill="#5C442C"/>
<path d="M8.78066 4.2561C6.29881 4.2561 4.28516 6.26963 4.28516 8.75161C4.28516 11.2336 6.29881 13.2471 8.78066 13.2471C11.2626 13.2471 13.2762 11.2336 13.2762 8.75161C13.2762 6.26963 11.2626 4.2561 8.78066 4.2561ZM8.78066 11.6677C7.17057 11.6677 5.86454 10.3618 5.86454 8.75161C5.86454 7.14138 7.17057 5.83549 8.78066 5.83549C10.3909 5.83549 11.6968 7.14138 11.6968 8.75161C11.6968 10.3618 10.3909 11.6677 8.78066 11.6677Z" fill="#5C442C"/>
<path d="M14.5054 4.07843C14.5054 4.65799 14.0354 5.12792 13.4557 5.12792C12.8762 5.12792 12.4062 4.65799 12.4062 4.07843C12.4062 3.49873 12.8762 3.02893 13.4557 3.02893C14.0354 3.02893 14.5054 3.49873 14.5054 4.07843Z" fill="#5C442C"/>
</g>
<defs>
<clipPath id="clip0_295_1371">
<rect width="17.5" height="17.5" fill="white"/>
</clipPath>
</defs>
</svg>
