<svg width="18" height="12" viewBox="0 0 18 12" fill="none" xmlns="http://www.w3.org/2000/svg">
<path d="M17.1386 1.87907C17.0414 1.51388 16.8464 1.18038 16.5735 0.91267C16.3006 0.644955 15.9597 0.452609 15.5856 0.35529C13.3173 0.0946405 11.034 -0.0228174 8.75 0.00365138C6.46608 -0.0228174 4.18278 0.0946405 1.91441 0.35529C1.54028 0.452609 1.19937 0.644955 0.926511 0.91267C0.653645 1.18038 0.458628 1.51388 0.361366 1.87907C0.112889 3.23654 -0.00792033 4.61331 0.000446441 5.99216C-0.00833593 7.37815 0.112474 8.76201 0.361366 10.1266C0.46367 10.4859 0.660929 10.8127 0.933456 11.0745C1.20597 11.3363 1.54422 11.5239 1.91441 11.6184C4.18278 11.879 6.46608 11.9966 8.75 11.97C11.034 11.9966 13.3173 11.879 15.5856 11.6184C15.9558 11.5239 16.2941 11.3363 16.5665 11.0745C16.8391 10.8127 17.0364 10.4859 17.1386 10.1266C17.3876 8.76201 17.5083 7.37815 17.4996 5.99216C17.508 4.61331 17.3871 3.23654 17.1386 1.87907ZM6.95634 8.53888V3.46676L11.5389 5.99216L6.95634 8.52822V8.53888Z" fill="#5C442C"/>
</svg>
