<svg width="20" height="14" viewBox="0 0 20 14" fill="none" xmlns="http://www.w3.org/2000/svg">
<path d="M19.587 2.14751C19.4759 1.73014 19.253 1.34901 18.9412 1.04305C18.6293 0.737092 18.2397 0.517267 17.8121 0.406046C15.2197 0.108161 12.6102 -0.0260771 10 0.004173C7.3898 -0.0260771 4.78032 0.108161 2.1879 0.406046C1.76032 0.517267 1.3707 0.737092 1.05887 1.04305C0.747022 1.34901 0.524146 1.73014 0.412989 2.14751C0.129016 3.69891 -0.0090518 5.27235 0.000510219 6.84818C-0.00952678 8.43217 0.128541 10.0137 0.412989 11.5732C0.529909 11.9839 0.755347 12.3574 1.06681 12.6566C1.37825 12.9558 1.76482 13.1701 2.1879 13.2781C4.78032 13.576 7.3898 13.7103 10 13.68C12.6102 13.7103 15.2197 13.576 17.8121 13.2781C18.2352 13.1701 18.6218 12.9558 18.9332 12.6566C19.2447 12.3574 19.4701 11.9839 19.587 11.5732C19.8715 10.0137 20.0095 8.43217 19.9995 6.84818C20.0091 5.27235 19.871 3.69891 19.587 2.14751ZM7.9501 9.75871V3.96201L13.1873 6.84818L7.9501 9.74654V9.75871Z" fill="#C9C9C9"/>
</svg>
