<svg width="17" height="15" viewBox="0 0 17 15" fill="none" xmlns="http://www.w3.org/2000/svg">
<path d="M13.9746 0.152588H3.02542C2.22327 0.153351 1.45418 0.472345 0.886969 1.03956C0.319757 1.60677 0.000762871 2.37585 0 3.17801L0 11.8221C0.000762871 12.6242 0.319757 13.3933 0.886969 13.9605C1.45418 14.5277 2.22327 14.8467 3.02542 14.8475H13.9746C14.7767 14.8467 15.5458 14.5277 16.113 13.9605C16.6802 13.3933 16.9992 12.6242 17 11.8221V3.17801C16.9992 2.37585 16.6802 1.60677 16.113 1.03956C15.5458 0.472345 14.7767 0.153351 13.9746 0.152588ZM14.9053 5.14021L9.7361 8.0475C9.35784 8.25714 8.93247 8.36713 8.5 8.36713C8.06753 8.36713 7.64216 8.25714 7.2639 8.0475L2.09475 5.14021C2.00064 5.10083 1.91596 5.04191 1.84634 4.96735C1.77671 4.89279 1.72371 4.80429 1.69085 4.70771C1.658 4.61113 1.64603 4.50867 1.65574 4.40712C1.66546 4.30556 1.69663 4.20723 1.7472 4.11863C1.79777 4.03003 1.86658 3.95318 1.94908 3.89317C2.03158 3.83316 2.12589 3.79136 2.22576 3.77054C2.32563 3.74971 2.42878 3.75034 2.52839 3.77237C2.628 3.79441 2.72179 3.83735 2.80356 3.89835L7.96983 6.77971C8.13185 6.8703 8.31437 6.91787 8.5 6.91787C8.68563 6.91787 8.86815 6.8703 9.03017 6.77971L14.1964 3.89835C14.2789 3.84814 14.3706 3.81503 14.4661 3.80097C14.5617 3.78691 14.659 3.7922 14.7525 3.81652C14.8459 3.84084 14.9335 3.88369 15.01 3.94253C15.0866 4.00137 15.1505 4.075 15.198 4.15904C15.2456 4.24308 15.2757 4.33582 15.2867 4.43174C15.2977 4.52766 15.2893 4.62481 15.2619 4.71742C15.2346 4.81002 15.189 4.89619 15.1277 4.9708C15.0664 5.04541 14.9908 5.10694 14.9053 5.15174V5.14021Z" fill="white"/>
</svg>
