<svg width="19" height="19" viewBox="0 0 19 19" fill="none" xmlns="http://www.w3.org/2000/svg">
<g clip-path="url(#clip0_213_329)">
<path d="M18.3701 5.89505C18.3291 4.9652 18.1787 4.32595 17.9633 3.77202C17.7411 3.18404 17.3993 2.65763 16.9514 2.22001C16.5138 1.77559 15.9839 1.43026 15.4027 1.21152C14.8456 0.996115 14.2097 0.845749 13.2798 0.804752C12.343 0.760283 12.0456 0.75 9.66968 0.75C7.29373 0.75 6.99633 0.760283 6.06302 0.80128C5.13317 0.842276 4.49392 0.992777 3.94012 1.20804C3.35201 1.43026 2.82559 1.77212 2.38798 2.22001C1.94356 2.65763 1.59836 3.18751 1.37948 3.76868C1.16408 4.32595 1.01372 4.96173 0.97272 5.89157C0.928251 6.82836 0.917969 7.12576 0.917969 9.50171C0.917969 11.8777 0.928251 12.1751 0.969248 13.1084C1.01025 14.0382 1.16075 14.6775 1.37615 15.2314C1.59836 15.8194 1.94356 16.3458 2.38798 16.7834C2.82559 17.2278 3.35548 17.5732 3.93665 17.7919C4.49392 18.0073 5.1297 18.1577 6.05968 18.1987C6.99286 18.2398 7.29039 18.2499 9.66634 18.2499C12.0423 18.2499 12.3397 18.2398 13.273 18.1987C14.2028 18.1577 14.8421 18.0073 15.3959 17.7919C16.572 17.3372 17.5018 16.4074 17.9565 15.2314C18.1718 14.6741 18.3223 14.0382 18.3633 13.1084C18.4043 12.1751 18.4146 11.8777 18.4146 9.50171C18.4146 7.12576 18.4111 6.82836 18.3701 5.89505ZM16.7942 13.04C16.7565 13.8947 16.613 14.3562 16.4933 14.6638C16.1993 15.4262 15.5942 16.0313 14.8318 16.3254C14.5241 16.445 14.0593 16.5886 13.208 16.6261C12.2849 16.6672 12.0081 16.6774 9.67315 16.6774C7.33819 16.6774 7.05789 16.6672 6.1382 16.6261C5.28354 16.5886 4.82202 16.445 4.51435 16.3254C4.13496 16.1851 3.78962 15.9629 3.50932 15.6723C3.21874 15.3886 2.99653 15.0467 2.85631 14.6673C2.73666 14.3596 2.5931 13.8947 2.55558 13.0435C2.51445 12.1204 2.5043 11.8435 2.5043 9.50852C2.5043 7.17356 2.51445 6.89326 2.55558 5.9737C2.5931 5.11904 2.73666 4.65753 2.85631 4.34985C2.99653 3.97033 3.21874 3.62513 3.51279 3.34469C3.79643 3.05411 4.1383 2.8319 4.51782 2.69181C4.8255 2.57216 5.29048 2.4286 6.14167 2.39095C7.0647 2.34995 7.34167 2.33967 9.67649 2.33967C12.0149 2.33967 12.2917 2.34995 13.2114 2.39095C14.0661 2.4286 14.5276 2.57216 14.8353 2.69181C15.2147 2.8319 15.56 3.05411 15.8403 3.34469C16.1309 3.62846 16.3531 3.97033 16.4933 4.34985C16.613 4.65753 16.7565 5.12238 16.7942 5.9737C16.8352 6.89673 16.8455 7.17356 16.8455 9.50852C16.8455 11.8435 16.8352 12.117 16.7942 13.04Z" fill="#C9C9C9"/>
<path d="M9.66738 5.0061C7.18553 5.0061 5.17188 7.01963 5.17188 9.50161C5.17188 11.9836 7.18553 13.9971 9.66738 13.9971C12.1494 13.9971 14.1629 11.9836 14.1629 9.50161C14.1629 7.01963 12.1494 5.0061 9.66738 5.0061ZM9.66738 12.4177C8.05728 12.4177 6.75126 11.1118 6.75126 9.50161C6.75126 7.89138 8.05728 6.58549 9.66738 6.58549C11.2776 6.58549 12.5835 7.89138 12.5835 9.50161C12.5835 11.1118 11.2776 12.4177 9.66738 12.4177Z" fill="#C9C9C9"/>
<path d="M15.392 4.82843C15.392 5.40799 14.9221 5.87792 14.3424 5.87792C13.7628 5.87792 13.2929 5.40799 13.2929 4.82843C13.2929 4.24873 13.7628 3.77893 14.3424 3.77893C14.9221 3.77893 15.392 4.24873 15.392 4.82843Z" fill="#C9C9C9"/>
</g>
<defs>
<clipPath id="clip0_213_329">
<rect width="17.5" height="17.5" fill="white" transform="translate(0.886719 0.75)"/>
</clipPath>
</defs>
</svg>
