<svg width="39" height="40" viewBox="0 0 39 40" fill="none" xmlns="http://www.w3.org/2000/svg">
<g clip-path="url(#clip0_213_775)">
<path d="M30.7943 0.5C22.7525 0.5 16.1949 0.5 8.20517 0.5C5.5962 0.5 3.47366 2.62254 3.47366 5.23151V11.7946C3.47366 14.4035 5.5962 16.5261 8.20517 16.5261H10.342V18.1449L12.4316 20.2346C11.2043 20.7588 10.342 21.9777 10.342 23.3944C10.342 25.2881 11.8825 26.8286 13.7761 26.8286H16.0656V34.3488L19.4997 39.5L22.9339 34.3488V26.8286H25.2233C27.1169 26.8286 28.6575 25.2881 28.6575 23.3944C28.6575 21.9776 27.7951 20.7588 26.5679 20.2346L28.6575 18.1449V16.5261H30.7943C33.4033 16.5261 35.5258 14.4035 35.5258 11.7946V5.23151C35.5258 2.62254 33.4033 0.5 30.7943 0.5ZM8.20517 14.2366C6.8586 14.2366 5.7631 13.141 5.7631 11.7946V5.23151C5.7631 3.88486 6.8586 2.78944 8.20517 2.78944H10.342V14.2366H8.20517ZM19.4997 35.3726L18.355 33.6555V31.4074H20.6445V33.6555L19.4997 35.3726ZM20.6445 29.118H18.355V26.8286H20.6445V29.118ZM25.2233 22.2497C25.8545 22.2497 26.3681 22.7631 26.3681 23.3944C26.3681 24.0256 25.8545 24.5391 25.2233 24.5391C23.8843 24.5391 14.9921 24.5391 13.7761 24.5391C13.1449 24.5391 12.6314 24.0256 12.6314 23.3944C12.6314 22.7631 13.1449 22.2497 13.7761 22.2497H25.2233ZM26.3681 17.1966L23.6045 19.9602H15.395L12.6314 17.1966C12.6314 16.6803 12.6314 3.58754 12.6314 2.78944H26.3681V17.1966ZM33.2364 11.7946C33.2364 13.141 32.1409 14.2366 30.7943 14.2366H28.6575V2.78944H30.7943C32.1409 2.78944 33.2364 3.88486 33.2364 5.23151V11.7946Z" fill="#5C442C"/>
<path d="M31.8591 32.4718L29.2629 32.6868L28.6537 35.2192L26.0578 35.4338L25.2551 38.7711L27.481 39.3065L27.8966 37.579L30.4923 37.3644L31.1016 34.8318L33.6976 34.6169L34.5008 31.2794L32.2749 30.7438L31.8591 32.4718Z" fill="#5C442C"/>
<path d="M10.3458 35.2192L9.73658 32.6868L7.14043 32.4718L6.72459 30.7438L4.49872 31.2794L5.30185 34.6169L7.89785 34.8318L8.50707 37.3644L11.1029 37.579L11.5184 39.3065L13.7444 38.7711L12.9416 35.4338L10.3458 35.2192Z" fill="#5C442C"/>
<path d="M16.0656 11.9472H22.9339V5.07886H16.0656V11.9472ZM18.355 7.3683H20.6445V9.65774H18.355V7.3683Z" fill="#5C442C"/>
<path d="M16.0656 14.2367H22.9339V16.5261H16.0656V14.2367Z" fill="#5C442C"/>
</g>
<defs>
<clipPath id="clip0_213_775">
<rect width="39" height="39" fill="white" transform="translate(-0.000244141 0.5)"/>
</clipPath>
</defs>
</svg>
