<svg width="13" height="13" viewBox="0 0 13 13" fill="none" xmlns="http://www.w3.org/2000/svg">
<path fill-rule="evenodd" clip-rule="evenodd" d="M1.21517 0.20849C0.937182 -0.0694966 0.486477 -0.0694967 0.20849 0.20849C-0.0694966 0.486477 -0.0694968 0.937182 0.20849 1.21517L5.4969 6.50358L0.215169 11.7853C-0.0628176 12.0633 -0.0628177 12.514 0.215169 12.792C0.493156 13.07 0.943861 13.07 1.22185 12.792L6.50358 7.51026L11.7853 12.792C12.0633 13.07 12.514 13.07 12.792 12.792C13.07 12.514 13.07 12.0633 12.792 11.7853L7.51026 6.50358L12.7987 1.21517C13.0766 0.937187 13.0766 0.486481 12.7987 0.208494C12.5207 -0.0694929 12.07 -0.0694933 11.792 0.208494L6.50358 5.4969L1.21517 0.20849Z" fill="white"/>
</svg>
