<svg width="21" height="12" viewBox="0 0 21 12" fill="none" xmlns="http://www.w3.org/2000/svg">
<path d="M19.9959 6.37134C20.4101 6.37134 20.7459 6.03555 20.7459 5.62134C20.7459 5.20712 20.4101 4.87134 19.9959 4.87134L19.9959 6.37134ZM0.715542 5.09101C0.422649 5.3839 0.422649 5.85877 0.715542 6.15167L5.48851 10.9246C5.78141 11.2175 6.25628 11.2175 6.54917 10.9246C6.84207 10.6317 6.84207 10.1569 6.54917 9.86398L2.30653 5.62134L6.54917 1.3787C6.84207 1.0858 6.84207 0.610929 6.54917 0.318036C6.25628 0.0251424 5.78141 0.0251424 5.48851 0.318036L0.715542 5.09101ZM19.9959 4.87134L1.24587 4.87134L1.24587 6.37134L19.9959 6.37134L19.9959 4.87134Z" fill="#5C442C"/>
</svg>
