<svg width="21" height="20" viewBox="0 0 21 20" fill="none" xmlns="http://www.w3.org/2000/svg">
<path d="M19.7037 15.2571C19.0794 14.7336 15.418 12.415 14.8094 12.5214C14.5237 12.5721 14.3051 12.8157 13.7201 13.5136C13.4496 13.8571 13.1525 14.1788 12.8316 14.4757C12.2435 14.3337 11.6744 14.1227 11.1358 13.8471C9.0239 12.8189 7.31772 11.1122 6.29013 9C6.01458 8.46148 5.8036 7.8923 5.66155 7.30429C5.9585 6.98336 6.28021 6.68625 6.6237 6.41571C7.32084 5.83071 7.56513 5.61357 7.61584 5.32643C7.72227 4.71643 5.40155 1.05643 4.88013 0.432143C4.66155 0.173571 4.46298 0 4.2087 0C3.47155 0 0.137268 4.12286 0.137268 4.65714C0.137268 4.70071 0.208697 8.99286 5.62941 14.5079C11.1444 19.9286 15.4366 20 15.4801 20C16.0144 20 20.1373 16.6657 20.1373 15.9286C20.1373 15.6743 19.9637 15.4757 19.7037 15.2571Z" fill="#636363"/>
<path d="M15.1373 9.2857H16.5658C16.5641 7.7707 15.9616 6.31823 14.8903 5.24697C13.819 4.1757 12.3666 3.57311 10.8516 3.57141V4.99998C11.9879 5.00112 13.0773 5.45301 13.8808 6.25649C14.6842 7.05997 15.1361 8.1494 15.1373 9.2857Z" fill="#636363"/>
<path d="M18.7087 9.28571H20.1373C20.1344 6.82386 19.1552 4.46365 17.4144 2.72285C15.6736 0.98206 13.3134 0.0028357 10.8516 0V1.42857C12.9347 1.43103 14.9317 2.25962 16.4047 3.73259C17.8777 5.20556 18.7062 7.20262 18.7087 9.28571Z" fill="#636363"/>
</svg>
