<svg width="17" height="17" viewBox="0 0 17 17" fill="none" xmlns="http://www.w3.org/2000/svg">
<path d="M16.6315 12.9686C16.1008 12.5235 12.9886 10.5528 12.4713 10.6432C12.2285 10.6863 12.0427 10.8934 11.5454 11.4865C11.3155 11.7785 11.0629 12.052 10.7901 12.3044C10.2903 12.1836 9.80653 12.0043 9.34879 11.7701C7.55364 10.8961 6.10338 9.44541 5.22993 7.65C4.99572 7.19226 4.81638 6.70845 4.69564 6.20864C4.94805 5.93585 5.2215 5.68331 5.51346 5.45336C6.10604 4.95611 6.31368 4.77154 6.35679 4.52746C6.44725 4.00896 4.47464 0.897964 4.03143 0.367321C3.84564 0.147536 3.67686 0 3.46071 0C2.83414 0 0 3.50443 0 3.95857C0 3.99561 0.0607142 7.64393 4.66832 12.3317C9.35607 16.9393 13.0044 17 13.0414 17C13.4956 17 17 14.1659 17 13.5393C17 13.3231 16.8525 13.1544 16.6315 12.9686Z" fill="white"/>
<path d="M12.7516 7.89254H13.9659C13.9644 6.60479 13.4522 5.3702 12.5417 4.45962C11.6311 3.54904 10.3965 3.03685 9.10873 3.0354V4.24969C10.0746 4.25065 11.0006 4.63476 11.6836 5.31772C12.3665 6.00068 12.7506 6.92669 12.7516 7.89254Z" fill="white"/>
<path d="M15.7873 7.89286H17.0016C16.9992 5.80028 16.1668 3.7941 14.6872 2.31443C13.2075 0.834751 11.2013 0.00241034 9.10873 0V1.21429C10.8794 1.21637 12.5769 1.92068 13.8289 3.1727C15.0809 4.42472 15.7852 6.12223 15.7873 7.89286Z" fill="white"/>
</svg>
