<svg width="20" height="20" viewBox="0 0 20 20" fill="none" xmlns="http://www.w3.org/2000/svg">
<g clip-path="url(#clip0_213_558)">
<path d="M9.96371 2.54141C10.181 2.54141 10.3571 2.36527 10.3571 2.14801V0.393398C10.3571 0.176133 10.181 0 9.96371 0C9.74645 0 9.57031 0.176133 9.57031 0.393398V2.14801C9.57035 2.36527 9.74648 2.54141 9.96371 2.54141Z" fill="#5C442C"/>
<path d="M19.5812 13.5152L18.8863 12.8221C18.6391 12.5752 18.3096 12.4392 17.9585 12.4392C17.734 12.4392 17.5185 12.4951 17.3275 12.5997L16.0179 11.2917L16.0817 11.228C16.613 10.6956 16.6128 9.83058 16.0816 9.30003C15.8918 9.10988 15.655 8.98308 15.3968 8.92972C15.4324 8.80703 15.4511 8.67851 15.4511 8.54699C15.4511 8.18156 15.3091 7.8389 15.0522 7.583C14.8623 7.39285 14.6255 7.26605 14.3674 7.21269C14.4029 7.08999 14.4216 6.96152 14.4216 6.82996C14.4216 6.46449 14.2797 6.12187 14.0223 5.86558C13.8279 5.67144 13.589 5.54855 13.3381 5.49624C13.4723 5.03347 13.3576 4.51281 12.9936 4.14812C12.6905 3.84636 12.2793 3.71667 11.883 3.75871L9.28789 3.26749C8.89211 3.19242 8.39785 3.14277 8.08586 3.42734C8.06617 3.44531 8.04609 3.46597 8.02633 3.48898C7.54258 3.31265 6.97836 3.41765 6.59097 3.8046C6.33398 4.06128 6.19242 4.40378 6.19242 4.76902C6.19242 4.90058 6.21105 5.02906 6.24656 5.15179C5.98867 5.20511 5.75215 5.33175 5.56297 5.52128C5.30547 5.77773 5.16347 6.11984 5.1632 6.48464C5.16308 6.61652 5.18179 6.74542 5.2175 6.86847C4.95949 6.92167 4.72281 7.04808 4.53304 7.23761C4.27554 7.49484 4.13375 7.83753 4.13375 8.20257C4.13375 8.48218 4.21722 8.74855 4.37191 8.97355C4.1766 9.03976 3.99769 9.14996 3.84789 9.2996C3.31625 9.83058 3.31605 10.6957 3.84824 11.2288L3.91179 11.2921L2.60203 12.5994C2.11527 12.3703 1.51554 12.4561 1.11387 12.8573L0.418474 13.5507C0.171131 13.7978 0.0349588 14.1273 0.0349197 14.4786C0.0349197 14.8299 0.171131 15.1595 0.418474 15.4066L1.28633 16.2734C1.44004 16.4269 1.68914 16.4268 1.84265 16.273C1.99621 16.1193 1.99605 15.8702 1.84234 15.7167L0.97449 14.8499C0.875974 14.7515 0.821717 14.6196 0.821717 14.4786C0.821717 14.3377 0.875974 14.2058 0.974256 14.1077L1.66969 13.4142C1.84344 13.2406 2.10937 13.2148 2.31133 13.3355C2.32554 13.3569 2.34199 13.3772 2.36082 13.396C2.39453 13.4298 2.43301 13.4557 2.47387 13.4747L6.46187 17.4568C6.48082 17.4981 6.50683 17.537 6.54078 17.571C6.57383 17.6041 6.61152 17.6296 6.65152 17.6485C6.73586 17.7438 6.78246 17.8656 6.78246 17.9955C6.78246 18.1366 6.7282 18.2684 6.62969 18.3668L5.93496 19.0607C5.72969 19.2651 5.39578 19.265 5.19113 19.0613L4.32328 18.1934C4.16965 18.0398 3.92058 18.0398 3.76695 18.1934C3.61332 18.347 3.61332 18.5961 3.76695 18.7497L4.63543 19.6183C4.89105 19.8728 5.22676 20.0001 5.56262 20.0001C5.89855 20.0001 6.23465 19.8727 6.49058 19.6178L7.18574 18.9235C7.43308 18.6764 7.56929 18.3469 7.56929 17.9955C7.56929 17.7448 7.49957 17.5053 7.36992 17.2989L8.84398 15.8266C8.84554 15.825 8.84711 15.8234 8.84871 15.8218C9.0175 15.6473 9.48754 15.68 9.94211 15.7115C10.2651 15.734 10.6252 15.7589 10.977 15.7184L12.5912 17.3307C12.4866 17.5214 12.4308 17.7366 12.4308 17.9607C12.4308 18.3117 12.567 18.641 12.8143 18.8881L13.5095 19.5825C13.7567 19.8294 14.0862 19.9654 14.4373 19.9654C14.7884 19.9654 15.1178 19.8294 15.3651 19.5825L19.5815 15.3711C19.8289 15.1241 19.9651 14.7946 19.9651 14.4432C19.965 14.0919 19.8288 13.7624 19.5812 13.5152ZM9.1414 4.04054L10.8479 4.36355L9.82648 5.3846C9.66847 5.30867 9.45191 5.16703 9.21433 4.93976C8.88914 4.62867 8.65652 4.26949 8.63535 4.04546C8.63531 4.04535 8.63531 4.04523 8.63531 4.04511C8.63531 4.04507 8.63527 4.04503 8.63527 4.045C8.63375 4.0289 8.63336 4.01605 8.63355 4.00624C8.685 3.99374 8.82164 3.97988 9.1414 4.04054ZM7.14695 4.36128C7.34625 4.16218 7.65586 4.13921 7.88105 4.29171C8.00867 4.82679 8.46512 5.31175 8.67047 5.50824C8.82265 5.65386 9.31098 6.09046 9.80387 6.21046C9.87055 6.30605 9.90683 6.41999 9.90683 6.54023C9.90683 6.69511 9.84726 6.83992 9.73871 6.94835C9.63047 7.05679 9.48543 7.11648 9.33027 7.11648C9.17508 7.11648 9.03004 7.05679 8.92129 6.94785L8.92125 6.94781L8.92105 6.94761L7.14691 5.17667C7.03875 5.06867 6.97918 4.92386 6.97918 4.76902C6.97922 4.61414 7.03879 4.46933 7.14695 4.36128ZM6.11898 6.07796C6.22722 5.96957 6.37211 5.90984 6.52703 5.90984C6.68215 5.90984 6.8275 5.96968 6.93644 6.07851L8.36504 7.50425C8.59 7.72957 8.59 8.09621 8.36582 8.32074C8.25699 8.42914 8.11144 8.48882 7.95601 8.48882C7.80058 8.48882 7.65504 8.42914 7.54668 8.32121L7.54664 8.32117L6.46285 7.23761C6.46117 7.23593 6.45933 7.23437 6.45762 7.23265L6.11855 6.89374C6.00976 6.78507 5.94988 6.63999 5.95 6.48523C5.95015 6.33097 6.00984 6.18664 6.11898 6.07796ZM5.08906 7.79429C5.19738 7.68613 5.34258 7.62656 5.49797 7.62656C5.65207 7.62656 5.79601 7.68527 5.90387 7.79156L6.99097 8.87816C7.09937 8.98613 7.1591 9.13078 7.1591 9.28546C7.1591 9.44011 7.09937 9.58476 6.99054 9.69316C6.88226 9.80128 6.73722 9.86085 6.58211 9.86085C6.42676 9.86085 6.28125 9.80113 6.17281 9.69316L5.77871 9.29953C5.77863 9.29941 5.77851 9.29933 5.77844 9.29925L5.0891 8.61074C4.98043 8.50218 4.92058 8.35718 4.92058 8.2025C4.92058 8.04785 4.98043 7.90281 5.08906 7.79429ZM4.4039 9.85625C4.51269 9.74757 4.65808 9.68773 4.81328 9.68773C4.96844 9.68773 5.11379 9.74753 5.22254 9.85613L5.61719 10.2503C5.72562 10.3583 5.78531 10.5029 5.78531 10.6576C5.78531 10.8123 5.72558 10.9569 5.61637 11.0657C5.50812 11.1741 5.36308 11.2339 5.20793 11.2339C5.05273 11.2339 4.90769 11.1742 4.79867 11.065L4.74926 11.0157C4.74859 11.0151 4.74808 11.0144 4.74746 11.0137C4.74672 11.013 4.74594 11.0124 4.74519 11.0117L4.40429 10.6721C4.17933 10.4467 4.17914 10.0807 4.4039 9.85625ZM12.4209 14.3273C12.2673 14.1735 12.0182 14.1734 11.8645 14.3269L11.5145 14.6765C11.182 15.0091 10.5793 14.9672 9.99656 14.9268C9.36371 14.8828 8.7093 14.8374 8.28582 15.2721L6.83679 16.7194L3.21324 13.1012L4.49558 11.8211C4.70754 11.951 4.95211 12.0207 5.20801 12.0207C5.57359 12.0207 5.9164 11.879 6.17246 11.6225C6.43023 11.3657 6.57222 11.0231 6.57222 10.6577C6.57222 10.6543 6.57199 10.6509 6.57199 10.6475C6.57539 10.6475 6.57879 10.6477 6.58219 10.6477C6.94726 10.6477 7.2898 10.5064 7.54621 10.2503C7.80398 9.99363 7.94597 9.65097 7.94597 9.28554C7.94597 9.28214 7.94574 9.27878 7.94574 9.27539C7.94918 9.27539 7.95261 9.27562 7.95609 9.27562C8.32105 9.27562 8.66379 9.13449 8.92191 8.87742C9.18988 8.60902 9.32242 8.25566 9.31988 7.90304C9.3234 7.90308 9.32691 7.90328 9.33043 7.90328C9.69601 7.90324 10.0388 7.76156 10.2952 7.50464C10.5522 7.24796 10.6938 6.90546 10.6938 6.54023C10.6938 6.2848 10.6243 6.04062 10.4948 5.8291L11.6188 4.70562C11.7025 4.62222 11.8058 4.56988 11.9141 4.54828C11.9258 4.54703 11.9373 4.54515 11.9488 4.54289C12.1225 4.51894 12.3048 4.57253 12.4377 4.7048C12.6626 4.93015 12.6626 5.29679 12.4385 5.52132L12.0962 5.86222C12.095 5.86335 12.0938 5.86437 12.0927 5.8655L11.6984 6.2591C11.5447 6.41261 11.5445 6.66171 11.6981 6.81542C11.8517 6.96917 12.1007 6.96929 12.2544 6.81578L12.5981 6.47257C12.5982 6.4725 12.5982 6.47242 12.5983 6.47234L12.6503 6.42058C12.8759 6.19707 13.2413 6.19753 13.4667 6.42257C13.5751 6.53054 13.6348 6.67519 13.6348 6.82988C13.6348 6.98453 13.5751 7.12917 13.4658 7.238L13.1216 7.58296C13.1215 7.583 13.1215 7.58304 13.1214 7.58312L12.7272 7.97574C12.5733 8.12906 12.5728 8.37816 12.7261 8.53207C12.8794 8.68601 13.1285 8.68648 13.2824 8.5332L13.6784 8.13878C13.7867 8.03035 13.9317 7.97066 14.0869 7.97066C14.2421 7.97066 14.3871 8.03035 14.4962 8.13956C14.6046 8.24757 14.6643 8.39222 14.6643 8.54691C14.6643 8.70156 14.6046 8.84621 14.4955 8.9548L13.8092 9.6414C13.6556 9.79507 13.6557 10.0441 13.8093 10.1977C13.8861 10.2745 13.9868 10.3129 14.0874 10.3129C14.1881 10.3129 14.2888 10.2744 14.3656 10.1976L14.702 9.86113C14.7039 9.85929 14.706 9.85769 14.7079 9.85578C14.8161 9.74734 14.9612 9.68765 15.1163 9.68765C15.2715 9.68765 15.4166 9.74734 15.5252 9.85617C15.7499 10.0807 15.7497 10.4467 15.5252 10.6716L15.1832 11.0132C15.1831 11.0133 15.1829 11.0134 15.1828 11.0135C15.1827 11.0137 15.1826 11.0138 15.1825 11.0139L14.6396 11.5561C14.4859 11.7096 14.4858 11.9587 14.6393 12.1125C14.7161 12.1894 14.8169 12.2278 14.9177 12.2278C15.0182 12.2278 15.1189 12.1895 15.1957 12.1128L15.4612 11.8476L16.7337 13.1187L13.1105 16.7375L11.8123 15.4409C11.9028 15.3827 11.9894 15.3142 12.0707 15.2329L12.4205 14.8835C12.5743 14.7301 12.5744 14.481 12.4209 14.3273ZM19.0255 14.8144L14.809 19.0258C14.7104 19.1243 14.5784 19.1785 14.4373 19.1785C14.2962 19.1785 14.1641 19.1243 14.0655 19.0257L13.3703 18.3314C13.2718 18.233 13.2175 18.1014 13.2175 17.9607C13.2175 17.8201 13.2718 17.6885 13.3703 17.5901L17.5867 13.3787C17.6854 13.2802 17.8174 13.2259 17.9585 13.2259C18.0996 13.2259 18.2316 13.2802 18.3305 13.379L19.0255 14.072C19.124 14.1704 19.1783 14.3022 19.1783 14.4432C19.1782 14.5843 19.124 14.7161 19.0255 14.8144Z" fill="#5C442C"/>
<path d="M4.74042 2.20997C4.81722 2.28661 4.91776 2.32489 5.01831 2.32489C5.11909 2.32489 5.21991 2.28637 5.29675 2.20938C5.45022 2.05559 5.44999 1.80653 5.2962 1.65305L3.86269 0.222388C3.70894 0.0689113 3.45983 0.0691066 3.30636 0.222935C3.15288 0.376724 3.15312 0.625786 3.3069 0.779263L4.74042 2.20997Z" fill="#5C442C"/>
<path d="M14.9129 2.32487C15.0135 2.32487 15.1141 2.28651 15.1909 2.20983L16.6233 0.779131C16.7771 0.625615 16.7772 0.376514 16.6237 0.222803C16.4701 0.0690919 16.2211 0.0689356 16.0673 0.22249L14.6349 1.65319C14.4812 1.80671 14.481 2.05581 14.6346 2.20952C14.7114 2.28644 14.8122 2.32487 14.9129 2.32487Z" fill="#5C442C"/>
<path d="M2.45661 16.9223C2.3043 17.0772 2.30641 17.3263 2.46137 17.4786L2.4625 17.4797C2.53895 17.5549 2.63821 17.5923 2.73743 17.5923C2.83926 17.5923 2.9411 17.5529 3.01825 17.4744C3.17055 17.3195 3.16786 17.0698 3.01293 16.9175C2.85805 16.7652 2.60899 16.7674 2.45661 16.9223Z" fill="#5C442C"/>
<path d="M13.3827 13.7597C13.4425 13.7597 13.5032 13.7461 13.5602 13.7174C13.7542 13.6195 13.8321 13.383 13.7343 13.189C13.6365 12.995 13.3999 12.917 13.2059 13.0149L13.2037 13.016C13.0097 13.1138 12.9329 13.3499 13.0307 13.5438C13.0998 13.6809 13.2387 13.7597 13.3827 13.7597Z" fill="#5C442C"/>
</g>
<defs>
<clipPath id="clip0_213_558">
<rect width="20" height="20" fill="white"/>
</clipPath>
</defs>
</svg>
