<svg width="20" height="20" viewBox="0 0 20 20" fill="none" xmlns="http://www.w3.org/2000/svg">
<path d="M14.1091 9.99977C14.1091 7.73399 12.2658 5.89062 9.99998 5.89062C7.73419 5.89062 5.89083 7.73399 5.89083 9.99977C5.89083 12.2656 7.73419 14.1089 9.99998 14.1089C12.2658 14.1089 14.1091 12.2656 14.1091 9.99977ZM9.99998 12.9349C8.38156 12.9349 7.06487 11.6182 7.06487 9.99977C7.06487 8.38135 8.38156 7.06467 9.99998 7.06467C11.6184 7.06467 12.9351 8.38135 12.9351 9.99977C12.9351 11.6182 11.6184 12.9349 9.99998 12.9349Z" fill="#5C442C"/>
<path d="M9.41211 3.54248H10.5862V4.71652H9.41211V3.54248Z" fill="#5C442C"/>
<path d="M9.41211 15.2832H10.5862V16.4572H9.41211V15.2832Z" fill="#5C442C"/>
<path d="M12.6445 5.37939L13.336 4.42959L14.2858 5.12111L13.5943 6.07091L12.6445 5.37939Z" fill="#5C442C"/>
<path d="M5.73633 14.8789L6.42784 13.9291L7.37761 14.6206L6.6861 15.5704L5.73633 14.8789Z" fill="#5C442C"/>
<path d="M14.8496 7.82617L15.9673 7.46574L16.3277 8.58343L15.21 8.94386L14.8496 7.82617Z" fill="#5C442C"/>
<path d="M3.67188 11.4316L4.78956 11.0712L5.14999 12.1889L4.03231 12.5493L3.67188 11.4316Z" fill="#5C442C"/>
<path d="M14.8416 12.2122L15.2079 11.0968L16.3233 11.4631L15.957 12.5785L14.8416 12.2122Z" fill="#5C442C"/>
<path d="M3.68164 8.55029L4.04794 7.43495L5.16328 7.80125L4.79698 8.91659L3.68164 8.55029Z" fill="#5C442C"/>
<path d="M12.6133 14.626L13.5655 13.9391L14.2523 14.8913L13.3001 15.5781L12.6133 14.626Z" fill="#5C442C"/>
<path d="M5.74609 5.10498L6.69827 4.41814L7.38507 5.37026L6.43289 6.0571L5.74609 5.10498Z" fill="#5C442C"/>
<path d="M9.99934 8.23877C9.02829 8.23877 8.23828 9.02878 8.23828 9.99983C8.23828 10.9709 9.02829 11.7609 9.99934 11.7609C10.9704 11.7609 11.7604 10.9709 11.7604 9.99983C11.7604 9.02878 10.9704 8.23877 9.99934 8.23877ZM9.99934 10.5869C9.67566 10.5869 9.41232 10.3235 9.41232 9.99983C9.41232 9.67615 9.67566 9.41281 9.99934 9.41281C10.323 9.41281 10.5864 9.67615 10.5864 9.99983C10.5864 10.3235 10.3231 10.5869 9.99934 10.5869Z" fill="#5C442C"/>
<path d="M18.7746 9.26069L20 8.49913L19.0006 5.39108L17.5618 5.48638C17.2972 5.04408 16.9937 4.62506 16.6552 4.23469L17.1972 2.89687L14.5589 0.973869L13.453 1.8978C12.9781 1.69528 12.4857 1.53502 11.982 1.41914L11.6324 0.0205078H8.36759L8.01792 1.41918C7.53668 1.53001 7.06523 1.6815 6.60935 1.87185L5.51021 0.939274L2.85734 2.842L3.38899 4.18393C3.04785 4.57149 2.74135 4.98811 2.47328 5.42869L1.03488 5.3224L0.0117404 8.4227L1.23161 9.19385C1.18594 9.69379 1.18124 10.2079 1.22539 10.739L0 11.5006L0.999345 14.6086L2.43821 14.5133C2.70276 14.9556 3.00625 15.3746 3.34469 15.765L2.80279 17.1028L5.44106 19.0258L6.54701 18.1019C7.02195 18.3045 7.5143 18.4647 8.01796 18.5806L8.36763 19.9792H11.6324L11.9821 18.5805C12.4633 18.4697 12.9348 18.3182 13.3907 18.1279L14.4898 19.0605L17.1427 17.1577L16.6111 15.8158C16.9522 15.4282 17.2587 15.0115 17.5268 14.571L18.9652 14.6773L19.9883 11.577L18.7684 10.8059C18.814 10.306 18.8188 9.79182 18.7746 9.26069ZM17.6313 9.99983C17.6313 10.6884 17.5393 11.1577 17.512 11.4006L18.586 12.0796L18.1375 13.4389L16.8708 13.3453L16.689 13.6753C16.0803 14.7806 15.3896 15.3884 15.245 15.5553L15.7135 16.7379L14.5503 17.5722L13.5816 16.7502L13.24 16.9106C12.1268 17.4335 11.2389 17.5212 11.024 17.572L10.7157 18.8051H9.28428L8.97598 17.572L8.60467 17.5035C7.36801 17.2751 6.57953 16.8117 6.36656 16.7229L5.39187 17.5371L4.23512 16.694L4.71264 15.515L4.45357 15.2409C3.58846 14.3257 3.22322 13.4893 3.10346 13.2927L1.83648 13.3766L1.39828 12.0139L2.47711 11.3434L2.42972 10.9697C2.26719 9.68816 2.47942 8.77624 2.48791 8.59912L1.4139 7.92013L1.86246 6.56082L3.1291 6.65443L3.31084 6.32441C3.91649 5.22476 4.60267 4.62017 4.75495 4.44434L4.28643 3.2618L5.44963 2.42753L6.41837 3.24951L6.75998 3.08906C7.87316 2.56614 8.76105 2.47852 8.97598 2.42765L9.28428 1.19455H10.7157L11.024 2.42765L11.3953 2.49621C12.632 2.72464 13.4204 3.18803 13.6334 3.27687L14.6081 2.46255L15.7648 3.30567L15.2872 4.48472L15.5464 4.75878C16.4115 5.67391 16.7767 6.51046 16.8965 6.70703L18.1635 6.62312L18.6016 7.98583L17.5228 8.65633C17.5479 8.892 17.6313 9.34091 17.6313 9.99983Z" fill="#5C442C"/>
</svg>
