<svg width="18" height="20" viewBox="0 0 18 20" fill="none" xmlns="http://www.w3.org/2000/svg">
<path d="M12.128 13.2143C14.2562 9.87469 13.9887 10.2913 14.05 10.2043C14.8248 9.11137 15.2344 7.82508 15.2344 6.48438C15.2344 2.92891 12.3492 0 8.78906 0C5.24055 0 2.34375 2.92313 2.34375 6.48438C2.34375 7.82422 2.76188 9.14418 3.56211 10.2518L5.45008 13.2143C3.43152 13.5245 0 14.4489 0 16.4844C0 17.2264 0.484297 18.2838 2.79148 19.1078C4.4025 19.6831 6.53246 20 8.78906 20C13.0088 20 17.5781 18.8097 17.5781 16.4844C17.5781 14.4486 14.1506 13.5251 12.128 13.2143ZM4.54098 9.60723C4.53453 9.59715 4.52781 9.5873 4.52078 9.57762C3.85488 8.66152 3.51562 7.57582 3.51562 6.48438C3.51562 3.55398 5.87523 1.17188 8.78906 1.17188C11.6968 1.17188 14.0625 3.55504 14.0625 6.48438C14.0625 7.57758 13.7296 8.62645 13.0998 9.5184C13.0433 9.59285 13.3378 9.13535 8.78906 16.273L4.54098 9.60723ZM8.78906 18.8281C4.17992 18.8281 1.17188 17.4733 1.17188 16.4844C1.17188 15.8197 2.7175 14.7268 6.1425 14.3007L8.29492 17.6782C8.4025 17.847 8.58883 17.9492 8.78902 17.9492C8.98922 17.9492 9.17559 17.847 9.28312 17.6782L11.4355 14.3007C14.8606 14.7268 16.4062 15.8197 16.4062 16.4844C16.4062 17.4649 13.4253 18.8281 8.78906 18.8281Z" fill="#5C442C"/>
<path d="M8.78906 3.55469C7.17363 3.55469 5.85938 4.86895 5.85938 6.48438C5.85938 8.0998 7.17363 9.41406 8.78906 9.41406C10.4045 9.41406 11.7188 8.0998 11.7188 6.48438C11.7188 4.86895 10.4045 3.55469 8.78906 3.55469ZM8.78906 8.24219C7.8198 8.24219 7.03125 7.45363 7.03125 6.48438C7.03125 5.51512 7.8198 4.72656 8.78906 4.72656C9.75832 4.72656 10.5469 5.51512 10.5469 6.48438C10.5469 7.45363 9.75832 8.24219 8.78906 8.24219Z" fill="#5C442C"/>
</svg>
