<svg width="20" height="20" viewBox="0 0 20 20" fill="none" xmlns="http://www.w3.org/2000/svg">
<path d="M17.5528 12.4516L17.367 11.1908C17.2501 10.3975 17.2505 9.5932 17.3681 8.80023L17.5551 7.5391L17.072 7.04633L20 4.1184L16.9793 3.03098L15.8769 0L12.6832 3.19371C12.147 3.05164 11.6264 2.85523 11.1284 2.60672L9.99805 2.04277L8.86359 2.60738C8.36477 2.85566 7.84328 3.05172 7.30625 3.19332L4.11676 0.00375L3.01062 2.99613L0 4.12848L2.91652 7.04496L2.43715 7.53398L2.62297 8.7948C2.73984 9.58809 2.73945 10.3924 2.62184 11.1854L2.4348 12.4465L2.9018 12.9229L0 15.8246L3.01062 16.957L4.11676 19.9494L7.28082 16.7853C7.82613 16.9279 8.35551 17.1264 8.86156 17.3789L9.99188 17.9429L11.1264 17.3782C11.6332 17.1259 12.1634 16.9278 12.7095 16.7857L15.877 19.9531L16.9793 16.9221L20 15.8347L17.0895 12.9242L17.5528 12.4516ZM16.0699 3.94332L17.8755 4.59332L16.2706 6.1982C15.8773 5.73426 15.5369 5.22793 15.2552 4.68684L14.6702 3.56277L14.0653 3.46125L15.4067 2.11984L16.0699 3.94332ZM3.92004 3.90035L4.57953 2.11609L5.92355 3.46016L5.32574 3.56051L4.73492 4.69031C4.45277 5.22988 4.11195 5.7348 3.71852 6.19742L2.10438 4.5832L3.92004 3.90035ZM3.92004 16.0528L2.10441 15.3699L3.7043 13.77C4.10391 14.2386 4.44949 14.7509 4.73473 15.2988L5.31977 16.4229L5.89684 16.5197L4.57953 17.837L3.92004 16.0528ZM10.6066 16.334L9.99246 16.6396L9.3823 16.3352C8.55414 15.922 7.67137 15.6348 6.75852 15.4816L6.08605 15.3687L5.76937 14.7603C5.34344 13.942 4.80004 13.193 4.15434 12.5343L3.67367 12.044L3.77566 11.3565C3.91008 10.4503 3.91051 9.53121 3.77695 8.62469L3.67559 7.93691L4.1623 7.44043C4.80367 6.78605 5.3441 6.04262 5.76855 5.23086L6.0907 4.61488L6.76777 4.50125C7.67754 4.34855 8.55758 4.06273 9.38336 3.65168L9.99746 3.34605L10.6076 3.65047C11.4358 4.06371 12.3186 4.3509 13.2314 4.50406L13.9039 4.61691L14.2205 5.22539C14.6464 6.04367 15.1898 6.79254 15.8356 7.45133L16.3162 7.94164L16.2143 8.62918C16.0798 9.53535 16.0794 10.4544 16.213 11.361L16.3143 12.0487L15.8276 12.5452C15.1863 13.1996 14.6458 13.943 14.2214 14.7548L13.8992 15.3708L13.2221 15.4844C12.3123 15.6371 11.4323 15.9229 10.6066 16.334ZM16.0699 16.0098L15.4067 17.8333L14.0942 16.5207L14.6642 16.4251L15.255 15.2953C15.5407 14.7489 15.8867 14.2381 16.2864 13.7707L17.8755 15.3598L16.0699 16.0098Z" fill="#5C442C"/>
<path d="M14.6883 9.99258C14.6883 7.40445 12.5827 5.29883 9.99453 5.29883C7.40641 5.29883 5.30078 7.40445 5.30078 9.99258C5.30078 12.5807 7.40641 14.6863 9.99453 14.6863C12.5827 14.6863 14.6883 12.5807 14.6883 9.99258ZM9.99453 13.5199C8.04957 13.5199 6.46723 11.9375 6.46723 9.99258C6.46723 8.04762 8.04957 6.46527 9.99453 6.46527C11.9395 6.46527 13.5218 8.04762 13.5218 9.99258C13.5218 11.9375 11.9395 13.5199 9.99453 13.5199Z" fill="#5C442C"/>
<path d="M9.40812 10.3159L8.56895 9.47674L7.74414 10.3015L9.40812 11.9655L12.2808 9.09287L11.456 8.26807L9.40812 10.3159Z" fill="#5C442C"/>
</svg>
