<svg width="20" height="20" viewBox="0 0 20 20" fill="none" xmlns="http://www.w3.org/2000/svg">
<g clip-path="url(#clip0_213_482)">
<path d="M19.7437 14.1626C19.0609 12.3511 18.2764 10.5459 17.4138 8.79799C16.2131 6.36672 14.8502 4.01902 13.3342 1.77083C12.9656 1.2255 12.4689 0.778905 11.8876 0.470173C11.3063 0.161441 10.6582 0 10 0C9.34183 0 8.69368 0.161441 8.11239 0.470173C7.5311 0.778905 7.03441 1.2255 6.66585 1.77083C5.14985 4.01902 3.78691 6.36672 2.58627 8.79799C1.72368 10.5461 0.939183 12.3511 0.256349 14.1617C0.0854916 14.6168 -0.00136039 15.099 1.61086e-05 15.5851C0.00371633 16.5719 0.366943 17.5236 1.0217 18.2619C1.67646 19.0003 2.57787 19.4747 3.55718 19.5963C5.69433 19.8646 7.84611 19.9994 10 20C12.1698 19.9996 14.3374 19.8629 16.4901 19.5907C17.0928 19.51 17.6696 19.2946 18.1775 18.9604C18.6855 18.6262 19.1117 18.1818 19.4243 17.6603C19.7369 17.1387 19.928 16.5534 19.9832 15.9479C20.0385 15.3423 19.9567 14.7321 19.7437 14.1626ZM16.2801 17.937C12.1249 18.4617 7.92035 18.4637 3.76468 17.9427C3.18809 17.8721 2.65701 17.5937 2.27084 17.1598C1.88468 16.7258 1.66989 16.166 1.66668 15.5851C1.66556 15.3 1.71601 15.0171 1.8156 14.75C2.47968 12.9897 3.24218 11.2352 4.08043 9.53516C5.24807 7.17148 6.57348 4.88907 8.04768 2.70341C8.26352 2.38413 8.55437 2.12266 8.89474 1.9419C9.23512 1.76115 9.61463 1.66663 10 1.66663C10.3854 1.66663 10.7649 1.76115 11.1053 1.9419C11.4457 2.12266 11.7365 2.38413 11.9523 2.70341C13.4266 4.88912 14.752 7.17159 15.9196 9.53533C16.7579 11.2353 17.5204 12.9899 18.1844 14.751C18.3085 15.0849 18.356 15.4425 18.3234 15.7972C18.2908 16.152 18.1791 16.4949 17.9963 16.8007C17.8135 17.1064 17.5644 17.3673 17.2674 17.564C16.9704 17.7606 16.633 17.8881 16.2801 17.937Z" fill="#5C442C"/>
<path d="M9.9974 5.8335C9.77638 5.8335 9.56442 5.92129 9.40814 6.07757C9.25186 6.23385 9.16406 6.44582 9.16406 6.66683V11.6668C9.16406 11.8878 9.25186 12.0998 9.40814 12.2561C9.56442 12.4124 9.77638 12.5002 9.9974 12.5002C10.2184 12.5002 10.4304 12.4124 10.5867 12.2561C10.7429 12.0998 10.8307 11.8878 10.8307 11.6668V6.66683C10.8307 6.44582 10.7429 6.23385 10.5867 6.07757C10.4304 5.92129 10.2184 5.8335 9.9974 5.8335Z" fill="#5C442C"/>
<path d="M9.9974 13.3335C9.77638 13.3335 9.56442 13.4213 9.40814 13.5776C9.25186 13.7339 9.16406 13.9458 9.16406 14.1668V15.0002C9.16406 15.2212 9.25186 15.4331 9.40814 15.5894C9.56442 15.7457 9.77638 15.8335 9.9974 15.8335C10.2184 15.8335 10.4304 15.7457 10.5867 15.5894C10.7429 15.4331 10.8307 15.2212 10.8307 15.0002V14.1668C10.8307 13.9458 10.7429 13.7339 10.5867 13.5776C10.4304 13.4213 10.2184 13.3335 9.9974 13.3335Z" fill="#5C442C"/>
</g>
<defs>
<clipPath id="clip0_213_482">
<rect width="20" height="20" fill="white"/>
</clipPath>
</defs>
</svg>
