<svg width="17" height="13" viewBox="0 0 17 13" fill="none" xmlns="http://www.w3.org/2000/svg">
<path d="M1 5.75C0.585786 5.75 0.25 6.08579 0.25 6.5C0.25 6.91421 0.585786 7.25 1 7.25V5.75ZM16.5303 7.03033C16.8232 6.73744 16.8232 6.26256 16.5303 5.96967L11.7574 1.1967C11.4645 0.903806 10.9896 0.903806 10.6967 1.1967C10.4038 1.48959 10.4038 1.96447 10.6967 2.25736L14.9393 6.5L10.6967 10.7426C10.4038 11.0355 10.4038 11.5104 10.6967 11.8033C10.9896 12.0962 11.4645 12.0962 11.7574 11.8033L16.5303 7.03033ZM1 7.25L16 7.25V5.75L1 5.75V7.25Z" fill="white"/>
</svg>
