<svg width="20" height="20" viewBox="0 0 20 20" fill="none" xmlns="http://www.w3.org/2000/svg">
<path d="M19.4569 0.000711919L0.290207 6.12571C-0.00145997 6.25071 -0.0847933 6.62571 0.12354 6.83404L5.33187 12.0424L5.08187 16.8757C5.04021 17.2924 5.54021 17.459 5.83187 17.1674L7.99854 14.6674L13.2069 19.8757C13.4152 20.084 13.7902 20.0007 13.9152 19.709L19.9985 0.542379C20.0819 0.209045 19.7485 -0.0826214 19.4569 0.000711919ZM17.6652 1.45905L5.74854 11.2924L1.16521 6.70905L17.6652 1.45905ZM6.12354 12.084L16.1235 3.83405L5.95687 15.709L6.12354 12.084ZM13.2485 18.7924L8.49854 14.0424L18.5402 2.25071L13.2485 18.7924Z" fill="black"/>
</svg>
