<svg width="26" height="22" viewBox="0 0 26 22" fill="none" xmlns="http://www.w3.org/2000/svg">
<path d="M20.9216 0H4.52941C3.32849 0.00114211 2.17708 0.478713 1.3279 1.3279C0.478713 2.17708 0.00114211 3.32849 0 4.52941L0 17.4706C0.00114211 18.6715 0.478713 19.8229 1.3279 20.6721C2.17708 21.5213 3.32849 21.9989 4.52941 22H20.9216C22.1225 21.9989 23.2739 21.5213 24.1231 20.6721C24.9723 19.8229 25.4498 18.6715 25.451 17.4706V4.52941C25.4498 3.32849 24.9723 2.17708 24.1231 1.3279C23.2739 0.478713 22.1225 0.00114211 20.9216 0ZM22.3149 7.46706L14.5761 11.8196C14.0098 12.1335 13.373 12.2981 12.7255 12.2981C12.078 12.2981 11.4412 12.1335 10.8749 11.8196L3.13608 7.46706C2.99519 7.4081 2.86842 7.31989 2.76418 7.20826C2.65994 7.09664 2.58059 6.96414 2.5314 6.81955C2.48221 6.67496 2.4643 6.52157 2.47884 6.36953C2.49338 6.21749 2.54005 6.07028 2.61576 5.93763C2.69147 5.80499 2.79449 5.68993 2.91801 5.60009C3.04152 5.51025 3.18271 5.44767 3.33222 5.41649C3.48174 5.38531 3.63617 5.38625 3.78529 5.41924C3.93442 5.45223 4.07484 5.51651 4.19725 5.60784L11.9318 9.92157C12.1743 10.0572 12.4476 10.1284 12.7255 10.1284C13.0034 10.1284 13.2767 10.0572 13.5192 9.92157L21.2537 5.60784C21.3772 5.53268 21.5145 5.4831 21.6575 5.46205C21.8005 5.44101 21.9463 5.44892 22.0862 5.48533C22.226 5.52174 22.3572 5.5859 22.4718 5.67399C22.5864 5.76208 22.6821 5.87231 22.7533 5.99813C22.8244 6.12395 22.8695 6.26278 22.886 6.40639C22.9024 6.55 22.8898 6.69544 22.8489 6.83408C22.808 6.97272 22.7397 7.10172 22.6479 7.21342C22.5562 7.32513 22.4429 7.41725 22.3149 7.48431V7.46706Z" fill="#636363"/>
</svg>
