<svg width="18" height="18" viewBox="0 0 18 18" fill="none" xmlns="http://www.w3.org/2000/svg">
<g clip-path="url(#clip0_663_334)">
<path d="M12.9004 8.11091C12.825 8.07478 12.7485 8.04001 12.6709 8.00672C12.5358 5.5178 11.1759 4.0929 8.89228 4.07832C8.88193 4.07826 8.87164 4.07826 8.8613 4.07826C7.49542 4.07826 6.35945 4.66128 5.66026 5.7222L6.91616 6.58372C7.43848 5.79125 8.25821 5.62231 8.8619 5.62231C8.86887 5.62231 8.87587 5.62231 8.88277 5.62238C9.63467 5.62717 10.2021 5.84578 10.5693 6.27211C10.8365 6.58249 11.0153 7.01139 11.1038 7.55269C10.4371 7.43939 9.71616 7.40455 8.94543 7.44874C6.77431 7.5738 5.37853 8.84004 5.47228 10.5995C5.51985 11.492 5.96447 12.2598 6.7242 12.7614C7.36654 13.1854 8.19384 13.3928 9.05364 13.3458C10.1891 13.2836 11.0799 12.8504 11.7013 12.0582C12.1733 11.4567 12.4718 10.6771 12.6036 9.69482C13.1447 10.0214 13.5457 10.4511 13.7672 10.9678C14.1438 11.846 14.1658 13.2891 12.9883 14.4656C11.9566 15.4962 10.7165 15.9421 8.84229 15.9559C6.76332 15.9405 5.19102 15.2738 4.16876 13.9742C3.21149 12.7573 2.71677 10.9997 2.69831 8.75C2.71677 6.50032 3.21149 4.74265 4.16876 3.52577C5.19102 2.22623 6.7633 1.55951 8.84227 1.54406C10.9363 1.55962 12.536 2.22955 13.5974 3.53536C14.1179 4.17572 14.5102 4.98101 14.7689 5.91995L16.2406 5.52728C15.9271 4.37155 15.4337 3.37565 14.7624 2.54971C13.4016 0.875609 11.4116 0.0177869 8.8474 0H8.83714C6.27819 0.0177251 4.3104 0.87881 2.98844 2.55931C1.81207 4.05475 1.20527 6.13555 1.18488 8.74385L1.18481 8.75L1.18488 8.75615C1.20527 11.3644 1.81207 13.4453 2.98844 14.9407C4.3104 16.6212 6.27819 17.4823 8.83714 17.5H8.8474C11.1224 17.4842 12.7261 16.8886 14.0471 15.5687C15.7755 13.842 15.7235 11.6775 15.1538 10.3488C14.7451 9.39595 13.9659 8.62205 12.9004 8.11091ZM8.97236 11.804C8.0208 11.8576 7.03222 11.4305 6.98348 10.5157C6.94735 9.83737 7.4662 9.0805 9.03076 8.99033C9.20993 8.98 9.38575 8.97495 9.55847 8.97495C10.1268 8.97495 10.6584 9.03016 11.1418 9.13582C10.9615 11.3873 9.90401 11.7529 8.97236 11.804Z" fill="#5C442C"/>
</g>
<defs>
<clipPath id="clip0_663_334">
<rect width="17.5" height="17.5" fill="white"/>
</clipPath>
</defs>
</svg>
