<svg width="18" height="18" viewBox="0 0 18 18" fill="none" xmlns="http://www.w3.org/2000/svg">
<g clip-path="url(#clip0_663_314)">
<path d="M12.9012 8.11091C12.8258 8.07478 12.7492 8.04001 12.6717 8.00672C12.5366 5.5178 11.1766 4.0929 8.89301 4.07832C8.88267 4.07826 8.87238 4.07826 8.86203 4.07826C7.49616 4.07826 6.36018 4.66128 5.66099 5.7222L6.91689 6.58372C7.43921 5.79125 8.25894 5.62231 8.86263 5.62231C8.86961 5.62231 8.87661 5.62231 8.88351 5.62238C9.6354 5.62717 10.2028 5.84578 10.57 6.27211C10.8373 6.58249 11.016 7.01139 11.1045 7.55269C10.4379 7.43939 9.71689 7.40455 8.94616 7.44874C6.77504 7.5738 5.37927 8.84004 5.47301 10.5995C5.52058 11.492 5.96521 12.2598 6.72494 12.7614C7.36728 13.1854 8.19457 13.3928 9.05438 13.3458C10.1898 13.2836 11.0806 12.8504 11.702 12.0582C12.174 11.4567 12.4725 10.6771 12.6043 9.69482C13.1454 10.0214 13.5465 10.4511 13.768 10.9678C14.1446 11.846 14.1665 13.2891 12.989 14.4656C11.9573 15.4962 10.7172 15.9421 8.84303 15.9559C6.76405 15.9405 5.19175 15.2738 4.16949 13.9742C3.21222 12.7573 2.7175 10.9997 2.69904 8.75C2.7175 6.50032 3.21222 4.74265 4.16949 3.52577C5.19175 2.22623 6.76403 1.55951 8.843 1.54406C10.9371 1.55962 12.5368 2.22955 13.5982 3.53536C14.1186 4.17572 14.511 4.98101 14.7696 5.91995L16.2414 5.52728C15.9278 4.37155 15.4345 3.37565 14.7631 2.54971C13.4024 0.875609 11.4123 0.0177869 8.84813 0H8.83787C6.27892 0.0177251 4.31113 0.87881 2.98917 2.55931C1.8128 4.05475 1.206 6.13555 1.18561 8.74385L1.18555 8.75L1.18561 8.75615C1.206 11.3644 1.8128 13.4453 2.98917 14.9407C4.31113 16.6212 6.27892 17.4823 8.83787 17.5H8.84813C11.1232 17.4842 12.7268 16.8886 14.0479 15.5687C15.7763 13.842 15.7242 11.6775 15.1546 10.3488C14.7459 9.39595 13.9667 8.62205 12.9012 8.11091ZM8.97309 11.804C8.02153 11.8576 7.03295 11.4305 6.98421 10.5157C6.94808 9.83737 7.46694 9.0805 9.03149 8.99033C9.21066 8.98 9.38648 8.97495 9.55921 8.97495C10.1275 8.97495 10.6592 9.03016 11.1425 9.13582C10.9622 11.3873 9.90474 11.7529 8.97309 11.804Z" fill="#C9C9C9"/>
</g>
<defs>
<clipPath id="clip0_663_314">
<rect width="17.5" height="17.5" fill="white"/>
</clipPath>
</defs>
</svg>
