<svg width="21" height="20" viewBox="0 0 21 20" fill="none" xmlns="http://www.w3.org/2000/svg">
<path fill-rule="evenodd" clip-rule="evenodd" d="M0.137268 10C0.137268 4.47715 4.61442 0 10.1373 0C15.6601 0 20.1373 4.47715 20.1373 10C20.1373 15.5228 15.6601 20 10.1373 20C4.61442 20 0.137268 15.5228 0.137268 10ZM13.9694 12.5547C13.663 13.0142 13.0421 13.1384 12.5826 12.8321L9.98237 11.0986C9.45437 10.7466 9.13727 10.1541 9.13727 9.5196V9.5V5C9.13727 4.44772 9.58497 4 10.1373 4C10.6896 4 11.1373 4.44772 11.1373 5V9.4648L13.692 11.1679C14.1515 11.4743 14.2757 12.0952 13.9694 12.5547Z" fill="#636363"/>
</svg>
