<svg width="22" height="22" viewBox="0 0 22 22" fill="none" xmlns="http://www.w3.org/2000/svg">
<path fill-rule="evenodd" clip-rule="evenodd" d="M0 11C0 4.92487 4.92487 0 11 0C17.0751 0 22 4.92487 22 11C22 17.0751 17.0751 22 11 22C4.92487 22 0 17.0751 0 11ZM15.2153 13.8102C14.8783 14.3156 14.1953 14.4522 13.6898 14.1153L10.8296 12.2085C10.2488 11.8213 9.9 11.1695 9.9 10.4716V10.45V5.5C9.9 4.89249 10.3925 4.4 11 4.4C11.6075 4.4 12.1 4.89249 12.1 5.5V10.4113L14.9102 12.2847C15.4156 12.6217 15.5522 13.3047 15.2153 13.8102Z" fill="#636363"/>
</svg>
