<svg width="19" height="13" viewBox="0 0 19 13" fill="none" xmlns="http://www.w3.org/2000/svg">
<path d="M18.0254 2.25407C17.9281 1.88888 17.7331 1.55538 17.4602 1.28767C17.1874 1.01996 16.8465 0.827609 16.4723 0.73029C14.204 0.469641 11.9207 0.352183 9.63671 0.378651C7.35279 0.352183 5.0695 0.469641 2.80113 0.73029C2.427 0.827609 2.08608 1.01996 1.81323 1.28767C1.54036 1.55538 1.34535 1.88888 1.24808 2.25407C0.999608 3.61154 0.878798 4.98831 0.887165 6.36716C0.878383 7.75315 0.999192 9.13701 1.24808 10.5016C1.35039 10.8609 1.54765 11.1877 1.82017 11.4495C2.09269 11.7113 2.43094 11.8989 2.80113 11.9934C5.0695 12.254 7.35279 12.3716 9.63671 12.345C11.9207 12.3716 14.204 12.254 16.4723 11.9934C16.8425 11.8989 17.1808 11.7113 17.4532 11.4495C17.7258 11.1877 17.9231 10.8609 18.0254 10.5016C18.2743 9.13701 18.395 7.75315 18.3863 6.36716C18.3947 4.98831 18.2738 3.61154 18.0254 2.25407ZM7.84305 8.91388V3.84176L12.4256 6.36716L7.84305 8.90322V8.91388Z" fill="#C9C9C9"/>
</svg>
